OpenSim_Sub06_EMGStiffKnee_GRF.mot
version=1
nRows=29
nColumns=19
inDegrees=no
endheader
time	lFx	lFy	lFz	lCOPx	lCOPy	lCOPz	rFx	rFy	rFz	rCOPx	rCOPy	rCOPz	lMx	lMy	lMz	rMx	rMy	rMz
13.58000000	16.89506415	165.75531799	8.26177417	0.86737292	0	-0.70115126	-41.11578075	474.09678839	-93.10738223	1.12417053	0	-0.34102868	0	1.05066982	0	0	-2.16149899	0
13.59000000	7.98121531	122.39786206	5.96497691	0.86706661	0	-0.70114481	-36.40581208	489.21349261	-90.81117869	1.11777656	0	-0.34101200	0	1.01542567	0	0	-2.28906008	0
13.60000000	-0.81862091	86.02089422	4.93605862	0.82696138	0	-0.66778348	-31.81142739	512.93189730	-87.78371667	1.11113473	0	-0.34133224	0	0.76914783	0	0	-2.32163612	-0.00000000
13.61000000	-8.62813996	57.12785808	4.34821933	0.70214920	0	-0.56441003	-27.45714238	542.40539699	-85.19729381	1.10471535	0	-0.34167141	0	0.52713870	0	0	-2.36859279	0
13.62000000	-13.96559719	35.07323759	3.58966305	0.47053965	0	-0.37454142	-23.52979678	573.79769343	-84.05835521	1.09868335	0	-0.34176875	0	0.30525233	0	0	-2.43857708	0
13.63000000	-15.19910659	18.37272850	2.15735256	0.21628807	0	-0.16925294	-20.10329592	603.61096242	-84.94862699	1.09302831	0	-0.34143849	0	0.12462873	0	0	-2.50874927	0
13.64000000	-12.79364843	6.49235941	0.15789346	0.05123021	0	-0.03832678	-17.08665859	629.43553369	-87.70363281	1.08764393	0	-0.34063640	0	0.02132787	0	0	-2.61340944	0.00000000
13.65000000	-9.88450631	0.17157547	-1.30989187	-0.01571302	0	0.01371788	-14.34595949	650.06238397	-91.64363554	1.08250041	0	-0.33951914	0	-0.01566234	0	0	-2.80952690	-0.00000000
13.66000000	-8.18675620	-1.77149023	-1.72880134	-0.02618599	0	0.02117363	-11.82910573	665.74961065	-95.66886655	1.07758875	0	-0.33828782	0	-0.01825922	0	0	-3.05509488	-0.00000000
13.67000000	-7.59477763	-1.64046897	-1.87677481	-0.01698005	0	0.01346280	-9.37406595	677.15925393	-98.60032885	1.07272093	0	-0.33710832	0	-0.01059899	0	0	-3.24818993	-0.00000000
13.68000000	-7.58918939	-0.88302131	-1.75648772	-0.00679179	0	0.00527634	-6.90497568	684.57451021	-99.70000123	1.06794217	0	-0.33602833	0	-0.00373473	0	0	-3.33255784	-0.00000000
13.69000000	-7.74925991	-0.23687934	-1.65121884	-0.00100085	0	0.00070593	-4.49166805	687.82844845	-99.15869090	1.06339547	0	-0.33503105	0	-0.00021758	0	0	-3.38089554	0
13.70000000	-7.91641454	0.12039899	-1.60058763	0.00098377	0	-0.00082202	-2.18998057	686.51993313	-97.55861410	1.05910893	0	-0.33405873	0	0.00080941	0	0	-3.44377166	-0.00000000
13.71000000	-8.05317955	0.27685650	-1.53934190	0.00105754	0	-0.00084928	-0.01239059	680.78345538	-95.54077171	1.05495519	0	-0.33306277	0	0.00071032	0	0	-3.49143489	-0.00000000
13.72000000	-8.16314128	0.33681695	-1.57416221	0.00059367	0	-0.00046832	2.05402549	671.58390581	-93.64336973	1.05080150	0	-0.33199276	0	0.00035956	0	0	-3.48822575	0
13.73000000	-8.25326601	0.36787830	-1.60083648	0.00020001	0	-0.00015382	3.88093436	660.42411664	-92.14181000	1.04666396	0	-0.33084875	0	0.00010273	0	0	-3.44681599	-0.00000000
13.74000000	-8.31730380	0.31227821	-1.68038669	0.00000478	0	-0.00000058	5.34482306	648.93177787	-91.11527979	1.04268052	0	-0.32966174	0	-0.00001194	0	0	-3.37028449	0
13.75000000	-8.35105396	0.16559943	-1.77719663	-0.00004890	0	0.00004011	6.38749994	638.56426861	-90.52874109	1.03890837	0	-0.32846916	0	-0.00003674	0	0	-3.28989368	0.00000000
13.76000000	-8.37120490	0.01647421	-1.85682589	-0.00004075	0	0.00003253	7.20407920	630.19755342	-90.24233560	1.03506902	0	-0.32730609	0	-0.00002656	0	0	-3.23320558	0.00000000
13.77000000	-8.40329275	-0.11661924	-1.94648394	-0.00002004	0	0.00001570	8.09300366	624.14768250	-90.21070021	1.03096343	0	-0.32621001	0	-0.00001191	0	0	-3.15227679	-0.00000000
13.78000000	-8.45451837	-0.20830760	-1.96544342	-0.00000547	0	0.00000412	9.09698864	620.43981534	-90.36422943	1.02646904	0	-0.32520286	0	-0.00000286	0	0	-2.99756128	0.00000000
13.79000000	-8.47751399	-0.28168940	-2.00856706	0.00000095	0	-0.00000086	10.16527260	619.15715503	-90.62999948	1.02168894	0	-0.32429579	0	0.00000069	0	0	-2.77354372	0
13.80000000	-8.49874919	-0.34723536	-2.05065326	0.00000264	0	-0.00000204	11.26479740	620.33258539	-91.07920373	1.01670959	0	-0.32352673	0	0.00000186	0	0	-2.52049109	0.00000000
13.81000000	-8.56417200	-0.45272055	-2.08998543	0.00000293	0	-0.00000204	12.53046793	623.61295491	-91.60601099	1.01130789	0	-0.32290901	0	0.00000354	0	0	-2.26351926	0
13.82000000	-8.66892800	-0.56525214	-2.12909318	0.00000321	0	-0.00000202	14.08960242	628.40427457	-92.11048820	1.00563597	0	-0.32241067	0	0.00000707	0	0	-2.00948999	0
13.83000000	-8.75344936	-0.60088840	-2.17222378	0.00000258	0	-0.00000152	15.92490500	633.99805540	-92.50166380	0.99997823	0	-0.32199199	0	0.00001077	0	0	-1.74682214	-0.00000000
13.84000000	-8.80564313	-0.53878582	-2.22193347	-0.00000228	0	0.00000143	18.11484847	639.79237334	-92.71487720	0.99435293	0	-0.32163113	0	0.00000729	0	0	-1.50497749	-0.00000000
13.85000000	-8.85167940	-0.45053744	-2.32543233	-0.00001618	0	0.00000970	20.73281598	645.40677965	-92.92862820	0.98864466	0	-0.32131563	0	-0.00001823	0	0	-1.27136996	0
13.86000000	-8.90285458	-0.37823634	-2.48751261	-0.00004092	0	0.00002431	23.77056858	650.47189075	-93.30961844	0.98283002	0	-0.32104482	0	-0.00008351	0	0	-1.03006268	0
